<svg width="1080" height="1080" viewBox="0 0 1080 1080" fill="none" xmlns="http://www.w3.org/2000/svg">
<g clip-path="url(#clip0_476_2318)">
<rect width="1080" height="1080" fill="#07080A"/>
<g filter="url(#filter0_f_476_2318)">
<path d="M-146.206 1698.82C-352.079 1675.29 -497.058 1552.59 -538.313 1386.17C-560.045 1298.44 -554.661 1210.14 -513.122 1113.47C-469.58 1012.19 -465.678 907.946 -504.846 824.922C-544.597 740.221 -625.018 679.155 -718.652 636.699C-867.793 569.096 -1059.15 557.758 -1131.42 413.353C-1161.11 354.322 -1157.96 275.269 -1108.02 205.7C-1053.4 130.019 -936.821 75.8981 -852.62 95.0832C-761.888 115.888 -757.828 224.955 -724.73 287.59C-687.86 357.634 -618.035 404.083 -510.649 403.611C-391.261 403.214 -272.432 337.333 -145.689 310.328C-56.4366 291.178 31.443 291.055 86.2105 325.62C156.527 369.794 152.99 452.568 143.331 538.249C134.002 621.994 147.704 707.932 183.746 771.431C243.606 876.463 363.096 936.301 520.658 943.179C573.643 945.464 630.03 941.852 688.052 932.327C723.177 926.539 830.939 914.1 864.067 887.658C647.334 1060.81 430.758 1234.88 214.45 1408.79C182.665 1434.49 -118.088 1701.93 -146.206 1698.82Z" fill="#2D2DE6" fill-opacity="0.5"/>
</g>
<g clip-path="url(#clip1_476_2318)">
<path d="M710.086 714.734C710.086 707.156 708.434 699.919 705.556 693.395C699.202 679.278 671.664 606.541 671.664 606.541L610.677 455.57C602.656 435.797 583.495 422.905 562.24 422.905H518.846C497.505 422.905 478.33 435.797 470.409 455.57L409.421 606.541L319.87 314H206L333.19 729.977C339.9 751.929 360.201 767 383.194 767H423.097C444.438 767 463.613 754.108 471.534 734.336L540.443 563.848L609.793 735.546C617.814 755.319 636.448 760.989 657.803 760.989C686.637 760.989 710.072 743.652 710.072 714.734H710.086Z" fill="white"/>
<path d="M609.894 735.546C618.171 754.45 637.075 767 657.903 767H697.807C720.8 767 741.101 752.014 747.811 729.977L819.07 496.938H705.2L671.665 606.527L632.73 734.065C629.425 744.777 614.609 745.475 609.908 735.546H609.894ZM761.045 314L727.766 422.891H841.636L875 314H761.045Z" fill="url(#paint0_linear_476_2318)"/>
</g>
</g>
<defs>
<filter id="filter0_f_476_2318" x="-1580.72" y="-339.107" width="2875.08" height="2468.25" filterUnits="userSpaceOnUse" color-interpolation-filters="sRGB">
<feFlood flood-opacity="0" result="BackgroundImageFix"/>
<feBlend mode="normal" in="SourceGraphic" in2="BackgroundImageFix" result="shape"/>
<feGaussianBlur stdDeviation="215.15" result="effect1_foregroundBlur_476_2318"/>
</filter>
<linearGradient id="paint0_linear_476_2318" x1="882.622" y1="972.645" x2="693.056" y2="366.915" gradientUnits="userSpaceOnUse">
<stop offset="0.397508" stop-color="#2CB2FF"/>
<stop offset="1" stop-color="#00FFFF"/>
</linearGradient>
<clipPath id="clip0_476_2318">
<rect width="1080" height="1080" fill="white"/>
</clipPath>
<clipPath id="clip1_476_2318">
<rect width="669" height="453" fill="white" transform="translate(206 314)"/>
</clipPath>
</defs>
</svg>
