<svg width="1080" height="1080" viewBox="0 0 1080 1080" fill="none" xmlns="http://www.w3.org/2000/svg">
<g clip-path="url(#clip0_476_2318)">
<rect width="1080" height="1080" fill="#07080A"/>
<g clip-path="url(#clip1_476_2318)">
<path d="M710.086 714.734C710.086 707.156 708.434 699.919 705.556 693.395C699.202 679.278 671.664 606.541 671.664 606.541L610.677 455.57C602.656 435.797 583.495 422.905 562.24 422.905H518.846C497.505 422.905 478.33 435.797 470.409 455.57L409.421 606.541L319.87 314H206L333.19 729.977C339.9 751.929 360.201 767 383.194 767H423.097C444.438 767 463.613 754.108 471.534 734.336L540.443 563.848L609.793 735.546C617.814 755.319 636.448 760.989 657.803 760.989C686.637 760.989 710.072 743.652 710.072 714.734H710.086Z" fill="white"/>
<path d="M609.894 735.546C618.171 754.45 637.075 767 657.903 767H697.807C720.8 767 741.101 752.014 747.811 729.977L819.07 496.938H705.2L671.665 606.527L632.73 734.065C629.425 744.777 614.609 745.475 609.908 735.546H609.894ZM761.045 314L727.766 422.891H841.636L875 314H761.045Z" fill="url(#paint0_linear_476_2318)"/>
</g>
</g>
<defs>
<linearGradient id="paint0_linear_476_2318" x1="882.622" y1="972.645" x2="693.056" y2="366.915" gradientUnits="userSpaceOnUse">
<stop offset="0.397508" stop-color="#2CB2FF"/>
<stop offset="1" stop-color="#00FFFF"/>
</linearGradient>
<clipPath id="clip0_476_2318">
<rect width="1080" height="1080" fill="white"/>
</clipPath>
<clipPath id="clip1_476_2318">
<rect width="669" height="453" fill="white" transform="translate(206 314)"/>
</clipPath>
</defs>
</svg>
