<?xml version="1.0" encoding="UTF-8"?>
<!-- Generator: Adobe Illustrator 25.3.1, SVG Export Plug-In . SVG Version: 6.00 Build 0)  -->
<svg version="1.1" id="Layer_1" xmlns="http://www.w3.org/2000/svg" xmlns:xlink="http://www.w3.org/1999/xlink" x="0px" y="0px" viewBox="0 0 503.7 202.3" style="enable-background:new 0 0 503.7 202.3;" xml:space="preserve"><script xmlns="" type="text/javascript"/>
<style type="text/css">
	.st0{fill:#FFFFFF;}
	.st1{fill:#B7A38E;}
	.st2{fill:#6E5C4E;}
	.st3{fill:#312A1D;}
	.st4{fill:#6A5C52;}
</style>
<g id="Artboard_1-2">
	<polygon class="st0" points="55.5,157.7 55.5,148.6 37.2,148.6 37.2,139.4 28.1,139.4 28.1,81.1 37.2,81.1 37.2,44.6 68,44.6    68,53.6 113.4,53.6 113.4,44.6 144.2,44.6 144.2,81.1 153.3,81.1 153.3,139.4 144.2,139.4 144.2,148.6 125.9,148.6 125.9,157.7     "/>
	<rect x="38.9" y="55.2" class="st1" width="103.6" height="91.6"/>
	<rect x="38.9" y="131.6" class="st2" width="18.2" height="6.1"/>
	<rect x="124.2" y="131.6" class="st2" width="18.3" height="6.1"/>
	<rect x="57.2" y="140.7" class="st2" width="67.1" height="6.1"/>
	<rect x="66.3" y="55.2" class="st3" width="48.8" height="8.9"/>
	<polygon class="st3" points="133.4,82.8 142.5,82.8 142.5,55.2 142.5,46.3 133.4,46.3 115.1,46.3 115.1,55.2 133.4,55.2  "/>
	<rect x="142.5" y="82.8" class="st3" width="9.1" height="54.9"/>
	<polygon class="st3" points="48.1,55.2 66.3,55.2 66.3,46.3 48.1,46.3 38.9,46.3 38.9,55.2 38.9,82.8 48.1,82.8  "/>
	<polygon class="st3" points="48.1,137.8 38.9,137.8 38.9,146.9 48.1,146.9 57.2,146.9 57.2,137.8  "/>
	<rect x="57.2" y="146.9" class="st3" width="67.1" height="9.1"/>
	<polygon class="st3" points="124.2,137.8 124.2,146.9 133.4,146.9 142.5,146.9 142.5,137.8 133.4,137.8  "/>
	<rect x="29.8" y="82.8" class="st3" width="9.1" height="54.9"/>
	<polygon class="st4" points="124.2,58.4 121.2,58.4 121.2,64.6 124.2,64.6 124.2,67.5 130.4,67.5 130.4,64.6 130.4,58.4  "/>
	<polygon class="st4" points="60.3,58.4 57.4,58.4 51.2,58.4 51.2,64.6 51.2,67.5 57.4,67.5 57.4,64.6 60.3,64.6  "/>
	<rect x="66.3" y="98.1" class="st3" width="9.3" height="9.3"/>
	<rect x="78.4" y="107.2" class="st3" width="6.2" height="6.2"/>
	<rect x="96.8" y="107.2" class="st3" width="6.2" height="6.2"/>
	<polygon class="st3" points="103,125.5 96.8,125.5 96.8,122.5 84.6,122.5 84.6,125.5 78.4,125.5 78.4,113.4 72.3,113.4 72.3,134.6    78.4,134.6 78.4,137.8 84.6,137.8 84.6,140.7 87.5,140.7 87.5,143.7 93.7,143.7 93.7,140.7 96.8,140.7 96.8,137.8 103,137.8    103,134.6 109.1,134.6 109.1,113.4 103,113.4  "/>
	<rect x="105.8" y="98.1" class="st3" width="9.3" height="9.3"/>
	<path class="st0" d="M183.8,136.4L170,122.7V78h17.2v37.8l3.4,3.4l3.4-3.4V78h17.2v37.9l3.4,3.3l3.4-3.4V78h17.2v44.6l-13.7,13.7   h-13.7l-5.1-5.1l-5.1,5.1L183.8,136.4z"/>
	<path class="st0" d="M239.6,136.4V78h41.2v58.4L239.6,136.4z M263.6,119.2v-24h-6.9v24H263.6z"/>
	<path class="st0" d="M285.1,136.4V78h13.7l12.4,12.4L323.7,78h13.7v58.4h-17.2v-30.9l-9,9l-9-9v30.9L285.1,136.4z"/>
	<path class="st0" d="M341.7,136.4V78H376l6.9,6.9V102l-6.9,6.9l6.9,6.9v13.7l-6.9,6.9L341.7,136.4z M365.7,102.1v-6.9h-6.9v6.9   L365.7,102.1z M365.7,119.2v-6.9h-6.9v6.9L365.7,119.2z"/>
	<path class="st0" d="M387.2,136.4V78h41.2v58.4h-17.2v-11.8h-6.9v11.8H387.2z M411.2,108.9V95.2h-6.9v13.7H411.2z"/>
	<path class="st0" d="M443,136.4V95.2h-10.3V78h41.2v17.2h-10.3v41.2H443z"/>
</g>
</svg>