<svg xmlns="http://www.w3.org/2000/svg" viewBox="0 0 462.16 109.7"><script xmlns="" type="text/javascript"/><defs><style>.cls-1{fill:#b7a38e;}.cls-2{fill:#6a5c52;}.cls-3{fill:#312a1d;}.cls-4{fill:#352b1b;}</style></defs><g id="Artboard_1" data-name="Artboard 1"><rect class="cls-1" x="9.13" y="8.94" width="103.55" height="91.63"/><rect class="cls-2" x="9.13" y="85.3" width="18.25" height="6.15"/><rect class="cls-2" x="94.43" y="85.3" width="18.25" height="6.15"/><rect class="cls-2" x="27.38" y="94.43" width="67.05" height="6.15"/><rect class="cls-3" x="36.5" y="8.94" width="48.8" height="8.94"/><polygon class="cls-3" points="103.55 36.5 112.68 36.5 112.68 8.94 112.68 0 103.55 0 85.3 0 85.3 8.94 103.55 8.94 103.55 36.5"/><rect class="cls-3" x="112.68" y="36.5" width="9.13" height="54.94"/><polygon class="cls-3" points="18.25 8.94 36.5 8.94 36.5 0 18.25 0 9.13 0 9.13 8.94 9.13 36.5 18.25 36.5 18.25 8.94"/><polygon class="cls-3" points="18.25 91.45 9.13 91.45 9.13 100.57 18.25 100.57 27.38 100.57 27.38 91.45 18.25 91.45"/><rect class="cls-3" x="27.38" y="100.57" width="67.05" height="9.13"/><polygon class="cls-3" points="94.43 91.45 94.43 100.57 103.55 100.57 112.68 100.57 112.68 91.45 103.55 91.45 94.43 91.45"/><rect class="cls-3" y="36.5" width="9.13" height="54.94"/><polygon class="cls-2" points="94.43 12.11 91.45 12.11 91.45 18.25 94.43 18.25 94.43 21.23 100.57 21.23 100.57 18.25 100.57 12.11 94.43 12.11"/><polygon class="cls-2" points="30.55 12.11 27.57 12.11 21.42 12.11 21.42 18.25 21.42 21.23 27.57 21.23 27.57 18.25 30.55 18.25 30.55 12.11"/><rect class="cls-3" x="36.5" y="51.78" width="9.31" height="9.31"/><rect class="cls-3" x="48.61" y="60.9" width="6.15" height="6.15"/><rect class="cls-3" x="67.05" y="60.9" width="6.15" height="6.15"/><polygon class="cls-3" points="73.19 79.16 67.05 79.16 67.05 76.17 54.76 76.17 54.76 79.16 48.61 79.16 48.61 67.05 42.46 67.05 42.46 88.28 48.61 88.28 48.61 91.45 54.76 91.45 54.76 94.43 57.74 94.43 57.74 97.41 63.88 97.41 63.88 94.43 67.05 94.43 67.05 91.45 73.19 91.45 73.19 88.28 79.34 88.28 79.34 67.05 73.19 67.05 73.19 79.16"/><rect class="cls-3" x="75.99" y="51.78" width="9.31" height="9.31"/><path class="cls-4" d="M172,90.09,158.3,76.35V31.72h17.16V69.49l3.44,3.43,3.43-3.43V31.72H199.5V69.59l3.43,3.33,3.43-3.43V31.72h17.17V76.35L209.8,90.09H196.06l-5.15-5.15-5.15,5.15Z"/><path class="cls-4" d="M227.82,90.09V31.72H269V90.09Zm24-17.17v-24H245v24Z"/><path class="cls-4" d="M273.32,90.09V31.72h13.73L299.5,44.16l12.44-12.44h13.74V90.09H308.51V59.19l-9,9-9-9v30.9Z"/><path class="cls-4" d="M330,90.09V31.72H364.3l6.87,6.87V55.75l-6.87,6.87,6.87,6.87V83.22l-6.87,6.87Zm24-34.34V48.89h-6.86v6.86Zm0,17.17V66.05h-6.86v6.87Z"/><path class="cls-4" d="M375.46,90.09V31.72h41.2V90.09H399.49V78.28h-6.86V90.09Zm24-27.47V48.89h-6.86V62.62Z"/><path class="cls-4" d="M431.25,90.09V48.89H421V31.72h41.21V48.89H451.85v41.2Z"/></g></svg>