<?xml version="1.0" encoding="UTF-8"?>
<!-- Generator: Adobe Illustrator 25.3.1, SVG Export Plug-In . SVG Version: 6.00 Build 0)  -->
<svg version="1.1" id="Layer_1" xmlns="http://www.w3.org/2000/svg" xmlns:xlink="http://www.w3.org/1999/xlink" x="0px" y="0px" viewBox="0 0 202.3 202.3" style="enable-background:new 0 0 202.3 202.3;" xml:space="preserve"><script xmlns="" type="text/javascript"/>
<style type="text/css">
	.st0{fill:#FFFFFF;}
	.st1{fill:#B7A38E;}
	.st2{fill:#6E5C4E;}
	.st3{fill:#312A1D;}
	.st4{fill:#6A5C52;}
</style>
<g id="Artboard_1">
	<path class="st0" d="M54,170.1l-4.7-4.7v-15.2h5.8v12.9l1.2,1.2l1.2-1.2v-12.9h5.8v12.9l1.2,1.1l1.2-1.2v-12.9h5.8v15.2l-4.7,4.7   h-4.7l-1.8-1.8l-1.8,1.8L54,170.1z"/>
	<path class="st0" d="M73.1,170.1v-19.9h14.1v19.9H73.1z M81.3,164.2V156h-2.3v8.2L81.3,164.2z"/>
	<path class="st0" d="M88.6,170.1v-19.9h4.7l4.2,4.2l4.2-4.2h4.7v19.9h-5.9v-10.6l-3.1,3.1l-3.1-3.1v10.6H88.6z"/>
	<path class="st0" d="M107.9,170.1v-19.9h11.7l2.3,2.3v5.9l-2.3,2.3l2.3,2.4v4.7l-2.3,2.4L107.9,170.1z M116.1,158.4V156h-2.3v2.3   L116.1,158.4z M116.1,164.2v-2.3h-2.3v2.3L116.1,164.2z"/>
	<path class="st0" d="M123.4,170.1v-19.9h14.1v19.9h-5.9v-4h-2.3v4H123.4z M131.6,160.7V156h-2.3v4.7L131.6,160.7z"/>
	<path class="st0" d="M142.5,170.1V156H139v-5.9h14v5.9h-3.5v14.1H142.5z"/>
	<polygon class="st0" points="65.9,143.5 65.9,134.3 47.7,134.3 47.7,125.2 38.6,125.2 38.6,66.9 47.7,66.9 47.7,30.4 78.4,30.4    78.4,39.3 123.9,39.3 123.9,30.4 154.6,30.4 154.6,66.9 163.7,66.9 163.7,125.2 154.6,125.2 154.6,134.3 136.4,134.3 136.4,143.5     "/>
	<rect x="49.4" y="41" class="st1" width="103.6" height="91.6"/>
	<rect x="49.4" y="117.4" class="st2" width="18.3" height="6.2"/>
	<rect x="134.7" y="117.4" class="st2" width="18.2" height="6.2"/>
	<rect x="67.6" y="126.5" class="st2" width="67" height="6.2"/>
	<rect x="76.8" y="41" class="st3" width="48.8" height="8.9"/>
	<polygon class="st3" points="143.8,68.6 152.9,68.6 152.9,41 152.9,32.1 143.8,32.1 125.6,32.1 125.6,41 143.8,41  "/>
	<rect x="152.9" y="68.6" class="st3" width="9.1" height="54.9"/>
	<polygon class="st3" points="58.5,41 76.8,41 76.8,32.1 58.5,32.1 49.4,32.1 49.4,41 49.4,68.6 58.5,68.6  "/>
	<polygon class="st3" points="58.5,123.5 49.4,123.5 49.4,132.7 58.5,132.7 67.6,132.7 67.6,123.5  "/>
	<rect x="67.6" y="132.7" class="st3" width="67" height="9.1"/>
	<polygon class="st3" points="134.7,123.5 134.7,132.7 143.8,132.7 152.9,132.7 152.9,123.5 143.8,123.5  "/>
	<rect x="40.2" y="68.6" class="st3" width="9.1" height="54.9"/>
	<polygon class="st4" points="134.7,44.2 131.7,44.2 131.7,50.3 134.7,50.3 134.7,53.3 140.8,53.3 140.8,50.3 140.8,44.2  "/>
	<polygon class="st4" points="70.8,44.2 67.8,44.2 61.7,44.2 61.7,50.3 61.7,53.3 67.8,53.3 67.8,50.3 70.8,50.3  "/>
	<rect x="76.8" y="83.9" class="st3" width="9.3" height="9.3"/>
	<rect x="88.9" y="93" class="st3" width="6.2" height="6.2"/>
	<rect x="107.3" y="93" class="st3" width="6.2" height="6.2"/>
	<polygon class="st3" points="113.4,111.2 107.3,111.2 107.3,108.3 95,108.3 95,111.2 88.9,111.2 88.9,99.1 82.7,99.1 82.7,120.4    88.9,120.4 88.9,123.5 95,123.5 95,126.5 98,126.5 98,129.5 104.1,129.5 104.1,126.5 107.3,126.5 107.3,123.5 113.4,123.5    113.4,120.4 119.6,120.4 119.6,99.1 113.4,99.1  "/>
	<rect x="116.2" y="83.9" class="st3" width="9.3" height="9.3"/>
</g>
</svg>