<svg id="Layer_1" data-name="Layer 1" xmlns="http://www.w3.org/2000/svg" viewBox="0 0 1000 1000"><path id="Union_6" data-name="Union 6" d="M645.22,825c.34-.29.68-.55,1-.83,1.29-1.1,2.59-2.22,3.88-3.35.83-.71,1.62-1.44,2.44-2.18,1.29-1.17,2.57-2.38,3.85-3.58.79-.75,1.58-1.48,2.36-2.25,1.35-1.32,2.68-2.67,4-4,.69-.7,1.38-1.37,2.06-2.09,1.68-1.76,3.32-3.56,4.95-5.4.32-.35.64-.69,1-1q2.89-3.3,5.68-6.77c.51-.63,1-1.31,1.52-2,1.31-1.68,2.61-3.38,3.89-5.12.66-.89,1.28-1.82,1.93-2.72,1.07-1.55,2.16-3.1,3.2-4.7.66-1,1.3-2,1.95-3.08,1-1.54,1.92-3.11,2.85-4.69.64-1.09,1.26-2.18,1.86-3.29q1.33-2.4,2.58-4.87c.58-1.12,1.15-2.24,1.68-3.39.84-1.71,1.6-3.45,2.36-5.2.5-1.12,1-2.23,1.46-3.35.79-1.94,1.51-3.93,2.24-5.93.36-1,.74-2,1.07-2.92,1-3,2-6.08,2.78-9.21,13.68-51.62.42-105-29-154l3-5.28a58.33,58.33,0,0,1,11.06-14.09,37,37,0,0,1,9.5-6.39,28.56,28.56,0,0,1,6.5-2.11,26.44,26.44,0,0,1,6.58-.47,28.4,28.4,0,0,1,4.4.61,31.06,31.06,0,0,1,9.81,4.12q1.2.75,2.37,1.62a40.42,40.42,0,0,1,3.83,3.21,54,54,0,0,1,7.18,8.36q1.71,2.41,3.3,5.16l111.2,195.21a64.92,64.92,0,0,1,4.58,9.55c.39,1,.75,2,1.06,3.07a46.87,46.87,0,0,1,1.44,5.95,38.58,38.58,0,0,1,.54,5.67,31.89,31.89,0,0,1-.63,7,28,28,0,0,1-1.25,4.31,26.36,26.36,0,0,1-1.89,4,27.58,27.58,0,0,1-5.65,6.85,31.91,31.91,0,0,1-5.8,4c-.72.39-1.45.77-2.23,1.12a53.73,53.73,0,0,1-22.64,4.42Zm-44.15,0a52.66,52.66,0,0,1-22.41-4.41,33.5,33.5,0,0,1-8-5.17,27.52,27.52,0,0,1-8.78-15.15,32.56,32.56,0,0,1-.61-4.6,36.22,36.22,0,0,1,.19-6.16,48.61,48.61,0,0,1,3.62-13.38,69,69,0,0,1,3.51-7.11l37-63.84v0c.2.58.42,1.18.59,1.77.84,2.51,1.61,5,2.34,7.47.13.46.25.91.39,1.36q.91,3.24,1.73,6.41l.39,1.54c.59,2.37,1.12,4.71,1.61,7l.32,1.57c.4,2,.78,4,1.11,6,.08.42.16.83.23,1.25.36,2.23.67,4.42.95,6.59.08.55.14,1.1.21,1.65.23,2,.41,3.9.6,5.82,0,.27,0,.54.07.81.17,2.09.29,4.15.38,6.2,0,.54.05,1.08.07,1.62.07,2,.11,4,.11,6v.46c0,1.86,0,3.68-.12,5.49,0,.52,0,1-.07,1.55-.1,1.86-.21,3.7-.37,5.51,0,.32-.06.62-.09.94-.14,1.58-.31,3.14-.5,4.67-.07.47-.11.93-.18,1.39-.23,1.71-.48,3.41-.76,5.07-.07.41-.15.78-.21,1.17-.26,1.39-.53,2.78-.82,4.16l-.25,1.18c-.35,1.58-.72,3.14-1.12,4.67-.09.42-.2.79-.31,1.19-.34,1.32-.71,2.62-1.09,3.89-.08.3-.18.6-.26.9-.44,1.46-.92,2.9-1.4,4.31-.13.38-.26.76-.42,1.14-.45,1.26-.91,2.55-1.39,3.77l-.19.51c-.53,1.36-1.08,2.68-1.64,4l-.35.81Zm-263.38,0H174.93c-1.67,0-3.3,0-4.88-.16a59.21,59.21,0,0,1-8.9-1.25A40.09,40.09,0,0,1,147,817.67a31.38,31.38,0,0,1-2.74-2.13,26.94,26.94,0,0,1-6.68-8.74c-.31-.66-.6-1.33-.86-2a29.16,29.16,0,0,1-1.26-4.31,32.5,32.5,0,0,1-.58-4.6c0-.8,0-1.6,0-2.42a38.19,38.19,0,0,1,.42-5A57,57,0,0,1,142.43,769l324.26-571q1.68-2.9,3.47-5.44a53.73,53.73,0,0,1,7.56-8.66,37.4,37.4,0,0,1,8.16-5.79,27.09,27.09,0,0,1,25.75,0,35,35,0,0,1,4.14,2.53,44.71,44.71,0,0,1,7.9,7.22A65.17,65.17,0,0,1,530.82,198l24.75,44.63L614,345.36c.41.84.75,1.67,1.13,2.51q2,4.32,3.53,8.76c1,3,2,6,2.72,9,.51,2,1,4.06,1.36,6.1q.79,4.08,1.25,8.2a108.06,108.06,0,0,1,0,23.85c-.31,2.74-.72,5.47-1.25,8.19A107.25,107.25,0,0,1,618.32,428q-1.44,3.94-3.18,7.79c-.38.83-.72,1.67-1.13,2.51L590.13,479.7c-3-2.45-6-4.87-9.13-7.24-88.14-67.87-27.8-165.23-27.8-165.23C454.12,329.85,424.54,443.93,476,528.52c27.32,44.88,31.5,87,19.07,115.89l-3.45,6-4.55,7.89c-12.82,17.06-33.47,26.53-59.58,24.68C358.18,678,368.08,571.8,368.08,571.8S301.74,683.91,346.3,776.38a181.53,181.53,0,0,0,26.35,40.25c-1.58.69-3.18,1.33-4.8,2l-1.74.63c-1.15.42-2.32.81-3.49,1.18l-1.77.55c-1.54.45-3.08.89-4.64,1.25l-.56.15c-1.74.42-3.48.78-5.25,1.12l-1.64.28c-1.32.23-2.66.42-4,.61l-1.65.21c-1.81.2-3.62.38-5.47.5Z" fill="#00b3ed" style="isolation:isolate"/></svg>