<svg width="16" height="16" viewBox="0 0 16 16" fill="none" xmlns="http://www.w3.org/2000/svg">
<g clip-path="url(#clip0_5639_32)">
<path d="M7.99959 6.6665C7.64596 6.6665 7.30683 6.80698 7.05678 7.05703C6.80673 7.30708 6.66625 7.64622 6.66625 7.99984C6.66625 8.67984 6.59959 9.67317 6.49292 10.6665" stroke="#3385FF" stroke-width="1.2549" stroke-linecap="round" stroke-linejoin="round"/>
<path d="M9.33293 8.74658C9.33293 10.3332 9.33293 12.9999 8.66626 14.6666" stroke="#3385FF" stroke-width="1.2549" stroke-linecap="round" stroke-linejoin="round"/>
<path d="M11.5273 14.0133C11.6073 13.6133 11.814 12.48 11.8607 12" stroke="#3385FF" stroke-width="1.2549" stroke-linecap="round" stroke-linejoin="round"/>
<path d="M1.33398 8.00016C1.33398 6.60095 1.77423 5.2372 2.59237 4.10209C3.41051 2.96699 4.56505 2.11808 5.89247 1.67561C7.21988 1.23314 8.65286 1.21954 9.98844 1.63674C11.324 2.05394 12.4945 2.88079 13.334 4.00016" stroke="#3385FF" stroke-width="1.2549" stroke-linecap="round" stroke-linejoin="round"/>
<path d="M1.33398 10.6665H1.33914" stroke="#3385FF" stroke-width="1.2549" stroke-linecap="round" stroke-linejoin="round"/>
<path d="M14.5327 10.6665C14.666 9.33317 14.62 7.09717 14.5327 6.6665" stroke="#3385FF" stroke-width="1.2549" stroke-linecap="round" stroke-linejoin="round"/>
<path d="M3.33398 12.9998C3.66732 11.9998 4.00065 9.99984 4.00065 7.99984C3.99998 7.54575 4.07663 7.09486 4.22732 6.6665" stroke="#3385FF" stroke-width="1.2549" stroke-linecap="round" stroke-linejoin="round"/>
<path d="M5.76709 14.6668C5.90709 14.2268 6.06709 13.7868 6.14709 13.3335" stroke="#3385FF" stroke-width="1.2549" stroke-linecap="round" stroke-linejoin="round"/>
<path d="M6 4.53346C6.60827 4.18228 7.29828 3.99745 8.00064 3.99756C8.70301 3.99767 9.39296 4.18272 10.0011 4.5341C10.6093 4.88548 11.1142 5.39079 11.4651 5.99923C11.816 6.60766 12.0005 7.29776 12 8.00012V9.33346" stroke="#3385FF" stroke-width="1.2549" stroke-linecap="round" stroke-linejoin="round"/>
</g>
<defs>
<clipPath id="clip0_5639_32">
<rect width="16" height="16" fill="white"/>
</clipPath>
</defs>
</svg>
