<?xml version="1.0" encoding="UTF-8"?>
<svg id="Layer_1" xmlns="http://www.w3.org/2000/svg" version="1.1" viewBox="0 0 1920 1080">
  <!-- Generator: Adobe Illustrator 29.4.0, SVG Export Plug-In . SVG Version: 2.1.0 Build 152)  -->
  <defs>
    <style>
      .st0 {
        fill: #daff00;
      }

      .st1 {
        fill: #fff;
      }
    </style>
  </defs>
  <g>
    <path class="st0" d="M715.2,0h-195.9v180.2c-10.5-38.4-32.8-74.6-67-108.4C405,24,345.7,0,274.6,0H0v590.8h195.9v-108.8h78.3c70.1,0,129.4-24.5,178-73.6,34.2-34.4,56.6-73.8,67.1-118.1v300.5h388.7v-195.9h-192.8V0ZM317.5,274.3c-11.1,12-25,18-41.5,18h-80.1v-118.2h80.1c16.5,0,30.4,5.6,41.5,16.7,11.7,11.1,17.6,25.1,17.6,42s-5.9,30.4-17.6,41.5Z"/>
    <path class="st0" d="M1800.9,431.7c8.2-6.5,16.2-13.6,23.8-21.3,49.3-49.1,74-108.3,74-177.8s-24.7-112-74-160.8C1777.4,24,1718.1,0,1646.9,0h-474.9l-84.6,153.1L1003.1,0h-206.3l188.9,342v248.8h202.1v-248.7L1371.3,10.6v580.2h195.9v-108.8h27.7l81.1,108.8h244l-119.1-159.1ZM1688.8,274.3c-11.1,12-25,18-41.5,18h-80.1v-118.2h80.1c16.5,0,30.4,5.6,41.5,16.7,11.7,11.1,17.6,25.1,17.6,42s-5.9,30.4-17.6,41.5Z"/>
  </g>
  <g>
    <path class="st1" d="M327.6,800.1l-12.1-1.2c-26.4-2-41.5-3.4-45.5-4.4-2.4-.8-4.2-1.8-5.6-3-3.7-3.1-5.1-7.7-4.1-13.6,1.2-5.1,4.4-8.3,9.7-9.4,2.4-.4,8-.8,16.8-1.2,5.5-.2,17.3.6,35.4,2.4,25.4,3.7,51.6,13.1,78.5,28l41-134.9c-57.9-18.3-110.1-26.7-156.7-25.1-46.6.6-83.6,13.4-111,38.4-29.7,26.4-46.1,65-49.3,116-1.2,26,5.7,49.9,20.7,71.7,16.9,25,40.1,39.4,69.7,43.1,11.6,2,29.7,3.5,54.3,4.7h9.2c6.3.4,11.5,1.1,15.6,2.1,8.3,3.2,11.9,8.7,10.9,16.5-.8,7.1-5.6,11.3-14.5,12.7-1.8.4-6.9.8-15.3,1.2-4.7.4-10.5.6-17.4.6-28.9,1-59.8-8.8-92.7-29.2l-41.6,131.6c39.7,23.2,88,34.1,144.6,32.8,61-5.1,103-17.9,126-38.4,29.3-27,45.9-65.7,49.9-116.3,1.4-30.7-7.8-57.9-27.5-81.5-21.8-25.2-51.6-39.7-89.1-43.7Z"/>
    <polygon class="st1" points="953.4 656.7 887.8 875.4 820.9 656.7 723.2 656.7 657.2 875.4 590.6 656.7 446.2 656.7 582.7 1067.1 731.2 1067.1 772.3 944 813.8 1067.1 962 1067.1 1098.4 656.7 953.4 656.7"/>
    <path class="st1" d="M1747.5,706.6c-33.2-33.3-74.7-50-124.6-50h-192.6v408.3l-136.3-408.3h-148.6l-136.4,410.4h146.5l15.3-52.9h101.8l15.1,52.9h279.4v-74.6h55.7c49.1,0,90.6-16.9,124.6-50.6,34.6-34.1,51.9-75.3,51.9-123.6s-17.3-77.8-51.9-111.7ZM1203.5,905.4l18-58.7,17.7,58.7h-35.7ZM1650.4,846.5c-7.6,8.2-17.1,12.3-28.4,12.3h-54.8v-80.8h54.8c11.3,0,20.8,3.8,28.4,11.4,8,7.6,12,17.2,12,28.7s-4,20.8-12,28.4Z"/>
  </g>
</svg>