<svg xmlns="http://www.w3.org/2000/svg" width="348.2" height="88.4" style="enable-background:new 0 0 348.2 88.4" xml:space="preserve"><script xmlns="" type="text/javascript"/><path d="M223.5 67H170l19.9-45.6h19.8l-14.9 33.7h33.9"/><path d="m227.3 67 9.6-22.4-11.8-23.2h22.2l5.2 10.1 14.6-10.1h22.2l-32.6 23.2-9.5 22.4zM183.2 29.8c-.3-1.5-.9-2.8-1.6-4.1-.8-1.3-1.8-2.5-3.2-3.4-1.4-.9-3.1-.9-5.1-.9l-49-.1L105.8 67h19.8l7.2-17h29.1c2.4 0 4.8-.4 7.4-1.2 2.6-.8 4.9-1.9 7-3.4 2.1-1.5 3.9-3.2 5.3-5.2s2.1-4.2 2.1-6.6c-.1-1-.2-2.3-.5-3.8m-23.5 9.4h-16.8l-8.9 7.6 6.7-16.3h19.9l3.9 4.5-4.8 4.2z"/><path d="M347.7 29.6c-.3-1.5-.9-2.8-1.6-4.1-.8-1.3-1.8-2.4-3.2-3.2-1.4-.9-3.1-.8-5.1-.8l-48.6-.1L270.3 67h19.8l7.2-17.3 24 17.3h21.4l-21.6-17.3h5.2c2.4 0 4.8-.4 7.4-1.2 2.6-.8 4.9-1.9 7-3.4 2.1-1.5 3.9-3.2 5.3-5.2s2.1-4.2 2.1-6.6c.1-1-.1-2.3-.4-3.7m-23.5 9.3h-16.8l-8.9 7.6 6.7-16.3h19.9l3.9 4.5-4.8 4.2z"/><path d="M45.6 0C21 0 1 19.8 1 44.2c0 24.4 20 44.2 44.6 44.2s44.6-19.8 44.6-44.2C90.2 19.8 70.2 0 45.6 0M67 48.8H32.6L14.4 64.3l13.7-33.4H69l8 9.1-10 8.8z" style="fill:#f60"/></svg>