<?xml version="1.0" encoding="utf-8"?>
<!-- Generator: Adobe Illustrator 19.0.0, SVG Export Plug-In . SVG Version: 6.00 Build 0)  -->
<svg version="1.1" id="Layer_1" xmlns="http://www.w3.org/2000/svg" xmlns:xlink="http://www.w3.org/1999/xlink" x="0px" y="0px"
	 viewBox="-236 240.2 38.1 33.8" style="enable-background:new -236 240.2 38.1 33.8;" xml:space="preserve">
<style type="text/css">
	.st0{fill:#E84142;}
</style>
<path id="XMLID_3_" class="st0" d="M-229.3,274h-4.4c-0.3,0-0.6,0-1-0.1c-0.9-0.2-1.5-1.1-1.1-1.9c0.2-0.6,0.5-1.1,0.8-1.7
	c3.2-5.6,6.4-11.2,9.6-16.9l6.6-11.7l0.6-0.9c0.5-0.8,1.9-0.8,2.5,0c0.3,0.5,0.7,1,1,1.6c1.3,2.3,2.6,4.6,4,6.9
	c0.5,0.8,0.7,1.7,0.7,2.6s-0.3,1.7-0.8,2.5l-3.9,6.9c-0.7,1.3-1.4,2.5-2.1,3.8c-1.2,2.2-2.5,4.3-3.7,6.5c-0.7,1.2-1.7,2-3.1,2.3
	c-0.4,0.1-0.8,0.1-1.2,0.1L-229.3,274L-229.3,274z"/>
<path id="XMLID_2_" class="st0" d="M-205.6,274h-5.5c-0.3,0-0.7,0-1-0.1c-0.8-0.2-1.4-1.1-1.1-1.9c0.2-0.4,0.4-0.9,0.6-1.3
	c1.8-3.1,3.6-6.1,5.3-9.2c0.2-0.3,0.3-0.5,0.5-0.8c0.6-0.7,1.8-0.8,2.3,0c0.4,0.6,0.8,1.2,1.1,1.8c1.6,2.8,3.3,5.6,4.9,8.4
	c0.2,0.3,0.3,0.6,0.5,0.9c0.4,1-0.3,2.1-1.3,2.1h-1.3C-202.3,274-203.9,274-205.6,274z"/>
</svg>
