<?xml version="1.0" encoding="UTF-8"?>
<svg id="Layer_1" xmlns="http://www.w3.org/2000/svg" version="1.1" viewBox="0 0 512 512">
  <!-- Generator: Adobe Illustrator 29.1.0, SVG Export Plug-In . SVG Version: 2.1.0 Build 142)  -->
  <defs>
    <style>
      .st0 {
        fill: gray;
      }

      .st1 {
        fill: #ccc;
      }

      .st2 {
        fill: #daff00;
      }
    </style>
  </defs>
  <path class="st2" d="M245,420.3c-41.5,0-80.5-16-109.9-45.2-25.8-25.7-41.4-58.8-44.9-94.6l-21.8-8.8c1.7,44.8,19.7,86.7,51.7,118.5,17.1,17,37,30.1,58.7,38.8,20.8,8.4,43.2,12.7,66.3,12.7,24.1,0,47.4-4.9,68.9-14.1v-23.6c-21.2,10.6-44.6,16.3-68.9,16.4Z"/>
  <path class="st2" d="M244.3,109.7c20.3,0,40,3.8,58.3,11.1,19.1,7.7,36.6,19.2,51.6,34.1,20.8,20.7,34.8,46.2,41.4,74.1l23.5,9.5c-5.6-37.2-22.7-71.6-49.8-98.7-33.4-33.3-77.8-51.6-125-51.5-15.8,0-31.3,2.3-46.2,6.4v22.1c14.8-4.6,30.3-7.1,46.2-7.1Z"/>
  <g>
    <path class="st1" d="M471.1,282.5l-49.9-20.1-21.8-8.8-175.5-70.7h0c-1.8-.7-3.4,1.5-2.1,3l113.3,130.8v44.9c0,0,.2,29.4.2,29.4v25.5c0,0,.1,22.1.1,22.1l63.7,71.9c1.7,1.9,4.6,2.1,6.4.4l66-57.8-.4-170.5Z"/>
    <path class="st0" d="M176.8,158.5v-33c0,0-.1-23.6-.1-23.6v-28.4c0,0-63.8-71.9-63.8-71.9-1.7-1.9-4.6-2.1-6.4-.4L40.5,59l.4,178.6,27.9,11.2,21,8.5,198.4,79.9h0c1.8.7,3.4-1.5,2.1-3l-113.3-130.8v-44.9Z"/>
  </g>
</svg>