<?xml version="1.0" encoding="UTF-8"?>
<svg id="Layer_1" xmlns="http://www.w3.org/2000/svg" version="1.1" viewBox="0 0 200 110">
  <!-- Generator: Adobe Illustrator 29.0.1, SVG Export Plug-In . SVG Version: 2.1.0 Build 192)  -->
  <defs>
    <style>
      .st0 {
        fill: #fff;
      }

      .st1 {
        fill: #f60;
      }
    </style>
  </defs>
  <path class="st1" d="M154.7,17.2l38.6,25.3c8.8,5.8,8.8,19.2,0,24.9l-38.6,25.3c-7.9,5.2-18.1-.7-18.1-10.4V27.6c0-9.7,10.2-15.5,18.1-10.4Z"/>
  <path class="st0" d="M95,0h-54.9C18,0,0,18.7,0,41.6v26.7c0,22.9,18,41.6,40,41.6h54.9c16.5,0,30-14.1,30-31.2V31.2C125,14.1,111.5,0,95,0ZM64.9,64h-11.5v12c0,5-3.9,9-8.7,9s-8.7-4-8.7-9v-12h-11.5c-4.8,0-8.7-4-8.7-9s3.9-9,8.7-9h11.5v-12c0-5,3.9-9,8.7-9s8.7,4,8.7,9v12h11.5c4.8,0,8.7,4,8.7,9s-3.9,9-8.7,9ZM88,85c-5.8,0-10.6-4.9-10.6-11s4.7-11,10.6-11,10.6,4.9,10.6,11-4.7,11-10.6,11ZM98.5,47c-5.8,0-10.6-4.9-10.6-11s4.7-11,10.6-11,10.6,4.9,10.6,11-4.7,11-10.6,11Z"/>
</svg>