<svg version="1.1" id="Layer_1" xmlns="http://www.w3.org/2000/svg" x="0" y="0" width="238.4" height="60.7" style="enable-background:new 0 0 238.4 60.7" xml:space="preserve"><style>.st0{fill:#fff}</style><path id="XMLID_36_" class="st0" d="M152.8 46H116l13.7-31.3h13.6l-10.2 23.1h23.3"/><path id="XMLID_35_" class="st0" d="m155.4 46 6.6-15.4-8.1-15.9h15.2l3.6 6.9 10-6.9h15.2l-22.3 15.9-6.5 15.4z"/><path id="XMLID_32_" class="st0" d="M125.1 20.5c-.2-1-.6-1.9-1.1-2.8-.5-.9-1.3-1.7-2.2-2.3-.9-.6-2.1-.6-3.5-.6l-33.7-.1L71.9 46h13.6l5-11.7h20c1.6 0 3.3-.3 5.1-.8 1.8-.5 3.4-1.3 4.8-2.3 1.5-1 2.7-2.2 3.6-3.5.9-1.4 1.4-2.9 1.4-4.5 0-.8-.1-1.7-.3-2.7M109 26.9H97.5l-6.1 5.2L96 20.9h13.7l2.7 3.1-3.4 2.9z"/><path id="XMLID_29_" class="st0" d="M238.1 20.3c-.2-1-.6-1.9-1.1-2.8-.5-.9-1.3-1.6-2.2-2.2-.9-.6-2.1-.5-3.5-.5l-33.4-.1L185 46h13.6l5-11.8L220 46h14.7l-14.8-11.8h3.6c1.6 0 3.3-.3 5.1-.8 1.8-.5 3.4-1.3 4.8-2.3 1.5-1 2.7-2.2 3.6-3.5.9-1.4 1.4-2.9 1.4-4.5 0-.9-.1-1.8-.3-2.8M222 26.7h-11.5l-6.1 5.2 4.6-11.2h13.7l2.7 3.1-3.4 2.9z"/><path id="XMLID_26_" d="M30.6 0C13.7 0 0 13.6 0 30.3s13.7 30.3 30.6 30.3c16.9 0 30.6-13.6 30.6-30.3S47.5 0 30.6 0m14.7 33.5H21.7L9.2 44.1l9.4-23h28l5.5 6.3-6.8 6.1z" style="fill:#f60"/></svg>