<?xml version="1.0" encoding="UTF-8"?>
<svg id="Layer_1" xmlns="http://www.w3.org/2000/svg" version="1.1" viewBox="0 0 250 200">
  <!-- Generator: Adobe Illustrator 29.0.1, SVG Export Plug-In . SVG Version: 2.1.0 Build 192)  -->
  <defs>
    <style>
      .st0 {
        fill: #fff;
      }

      .st1 {
        fill: #f60;
      }
    </style>
  </defs>
  <path d="M100,0C44.8,0,0,44.8,0,100s44.8,100,100,100,100-44.8,100-100S155.2,0,100,0ZM147.9,110.3h-77.1l-40.8,35.1,30.7-75.7h91.6l18.1,20.7-22.5,19.8Z"/>
  <g>
    <rect class="st1" x="150" width="100" height="60" rx="20" ry="20"/>
    <g>
      <path class="st0" d="M173,48v-8h4.4v-21.1h-4.4v-8h20.2v8h-4.4v21.1h4.4v8h-20.2Z"/>
      <path class="st0" d="M198.2,48V11h16.7c2.2,0,4.3.4,6.3,1.2,2,.8,3.7,1.9,5.2,3.2,1.5,1.4,2.7,3,3.5,4.9.8,1.9,1.3,4,1.3,6.2v5.3c0,2.2-.4,4.3-1.3,6.3-.8,2-2,3.7-3.5,5.2-1.5,1.5-3.3,2.6-5.2,3.5-2,.8-4.1,1.3-6.3,1.3h-16.7ZM209.6,39.4h4.2c1,0,1.9-.2,2.7-.7.8-.5,1.4-1.1,1.9-1.9.5-.8.7-1.7.7-2.7v-9.6c0-1-.2-1.9-.7-2.6-.5-.8-1.1-1.3-1.9-1.8-.8-.4-1.7-.6-2.7-.6h-4.2v20Z"/>
    </g>
  </g>
</svg>