<?xml version="1.0" encoding="UTF-8"?>
<svg id="Layer_1" xmlns="http://www.w3.org/2000/svg" version="1.1" viewBox="0 0 250 200">
  <!-- Generator: Adobe Illustrator 29.0.1, SVG Export Plug-In . SVG Version: 2.1.0 Build 192)  -->
  <defs>
    <style>
      .st0 {
        fill: #daff00;
      }

      .st1 {
        stroke: #000;
      }

      .st1, .st2 {
        fill: #fff;
      }

      .st1, .st3 {
        stroke-miterlimit: 10;
      }

      .st3 {
        fill: none;
        stroke: #daff00;
        stroke-width: 20px;
      }
    </style>
  </defs>
  <polygon class="st1" points="46.6 55.7 30.2 142.5 52.7 153.4 158.7 122 177.9 93.3 152.3 69.7 46.6 55.7"/>
  <path class="st3" d="M130,46v-18c0-9.9,8.1-18,18-18h74c9.9,0,18,8.1,18,18v18c0,9.9-8.1,18-18,18h-74"/>
  <g>
    <path class="st0" d="M100,0C44.8,0,0,44.8,0,100s44.8,100,100,100,100-44.8,100-100S155.2,0,100,0ZM147.9,110.3l-77.1,26.5-40.8,8.6,30.7-75.7h91.6l18.1,20.7-22.5,19.8h0Z"/>
    <path d="M100,13C52,13,13,52,13,100s39,87,87,87,87-39,87-87S148,13,100,13ZM141.7,109h-67l-35.5,30.5,26.7-65.8h79.7l15.7,18-19.6,17.2h0Z"/>
  </g>
  <g>
    <rect class="st2" x="130" y="10" width="110" height="54" rx="18" ry="18"/>
    <g>
      <path d="M138.7,54.6v-7.6h4.2v-20.1h-4.2v-7.6h19.2v7.6h-4.2v20.1h4.2v7.6h-19.2Z"/>
      <path d="M162.7,54.6V19.4h15.9c2.1,0,4.1.4,6,1.1s3.5,1.8,5,3c1.4,1.3,2.6,2.9,3.3,4.7s1.2,3.8,1.2,5.9v5c0,2.1-.4,4.1-1.2,6s-1.9,3.5-3.3,5-3.1,2.5-5,3.3-3.9,1.2-6,1.2c0,0-15.9,0-15.9,0ZM173.5,46.4h4c1,0,1.8-.2,2.6-.7s1.3-1,1.8-1.8.7-1.6.7-2.6v-9.1c0-1-.2-1.8-.7-2.5-.5-.8-1-1.2-1.8-1.7-.8-.4-1.6-.6-2.6-.6h-4v19h0Z"/>
      <path d="M209.3,54.6v-13.2h-13.2v-8.8h13.2v-13.2h8.8v13.2h13.2v8.8h-13.2v13.2h-8.8Z"/>
    </g>
  </g>
</svg>