<?xml version="1.0" encoding="utf-8"?>
<!-- Generator: Adobe Illustrator 19.0.0, SVG Export Plug-In . SVG Version: 6.00 Build 0)  -->
<svg version="1.1" id="Layer_1" xmlns="http://www.w3.org/2000/svg" xmlns:xlink="http://www.w3.org/1999/xlink" x="0px" y="0px"
	 viewBox="-186 366.3 238.4 60.7" style="enable-background:new -186 366.3 238.4 60.7;" xml:space="preserve">
<style type="text/css">
	.st0{fill:#FFFFFF;}
</style>
<path id="XMLID_36_" class="st0" d="M-33.2,412.3H-70l13.7-31.3h13.6l-10.2,23.1h23.3"/>
<path id="XMLID_35_" class="st0" d="M-30.6,412.3l6.6-15.4l-8.1-15.9h15.2l3.6,6.9l10-6.9h15.2l-22.3,15.9l-6.5,15.4H-30.6z"/>
<path id="XMLID_32_" class="st0" d="M-60.9,386.8c-0.2-1-0.6-1.9-1.1-2.8c-0.5-0.9-1.3-1.7-2.2-2.3c-0.9-0.6-2.1-0.6-3.5-0.6
	l-33.7-0.1l-12.7,31.3h13.6l5-11.7h20c1.6,0,3.3-0.3,5.1-0.8c1.8-0.5,3.4-1.3,4.8-2.3c1.5-1,2.7-2.2,3.6-3.5
	c0.9-1.4,1.4-2.9,1.4-4.5C-60.6,388.7-60.7,387.8-60.9,386.8 M-77,393.2h-11.5l-6.1,5.2l4.6-11.2h13.7l2.7,3.1
	C-73.6,390.3-77,393.2-77,393.2z"/>
<path id="XMLID_29_" class="st0" d="M52.1,386.6c-0.2-1-0.6-1.9-1.1-2.8s-1.3-1.6-2.2-2.2c-0.9-0.6-2.1-0.5-3.5-0.5L11.9,381
	L-1,412.3h13.6l5-11.8L34,412.3h14.7l-14.8-11.8h3.6c1.6,0,3.3-0.3,5.1-0.8s3.4-1.3,4.8-2.3c1.5-1,2.7-2.2,3.6-3.5
	c0.9-1.4,1.4-2.9,1.4-4.5C52.4,388.5,52.3,387.6,52.1,386.6 M36,393H24.5l-6.1,5.2L23,387h13.7l2.7,3.1L36,393z"/>
<path id="XMLID_26_" class="st0" d="M-155.4,366.3c-16.9,0-30.6,13.6-30.6,30.3c0,16.7,13.7,30.3,30.6,30.3s30.6-13.6,30.6-30.3
	C-124.8,379.9-138.5,366.3-155.4,366.3 M-140.7,399.8h-23.6l-12.5,10.6l9.4-23h28l5.5,6.3C-133.9,393.7-140.7,399.8-140.7,399.8z"/>
</svg>
