<svg xmlns="http://www.w3.org/2000/svg" xmlns:xlink="http://www.w3.org/1999/xlink" viewBox="0 0 500 500"><defs><style>.cls-1{fill:url(#linear-gradient);}.cls-2{fill:url(#linear-gradient-2);}.cls-3{fill:url(#linear-gradient-3);}.cls-4{fill:url(#linear-gradient-4);}.cls-5{fill:url(#linear-gradient-5);}.cls-6{fill:url(#linear-gradient-6);}</style><linearGradient id="linear-gradient" x1="136.44" y1="-155.89" x2="357.54" y2="634.38" gradientUnits="userSpaceOnUse"><stop offset="0.14" stop-color="#ff79f4"/><stop offset="0.3" stop-color="#c19af4"/><stop offset="0.49" stop-color="#7dbdf5"/><stop offset="0.66" stop-color="#47daf5"/><stop offset="0.81" stop-color="#20eef6"/><stop offset="0.93" stop-color="#09faf6"/><stop offset="1" stop-color="#00fff6"/></linearGradient><linearGradient id="linear-gradient-2" x1="441.95" y1="89" x2="441.95" y2="410.35" gradientUnits="userSpaceOnUse"><stop offset="0" stop-color="#8773eb"/><stop offset="1" stop-color="#00c4f0"/></linearGradient><linearGradient id="linear-gradient-3" x1="58.05" y1="90.72" x2="58.05" y2="396.62" xlink:href="#linear-gradient-2"/><linearGradient id="linear-gradient-4" x1="403.61" y1="58.05" x2="157.49" y2="58.05" gradientUnits="userSpaceOnUse"><stop offset="0" stop-color="#008dee"/><stop offset="1" stop-color="#a26dea"/></linearGradient><linearGradient id="linear-gradient-5" x1="90.21" y1="442.24" x2="409.79" y2="442.24" gradientUnits="userSpaceOnUse"><stop offset="0" stop-color="#009bee"/><stop offset="1" stop-color="#00caf0"/></linearGradient><linearGradient id="linear-gradient-6" x1="250" y1="388.06" x2="250" y2="210.89" gradientUnits="userSpaceOnUse"><stop offset="0" stop-color="#ff79f4"/><stop offset="1" stop-color="#00fff6"/></linearGradient></defs><g id="Layer_2" data-name="Layer 2"><g id="Layer_1-2" data-name="Layer 1"><path class="cls-1" d="M250,0C111.93,0,0,111.93,0,250S111.93,500,250,500,500,388.07,500,250,388.07,0,250,0Zm0,384A134,134,0,1,1,384,250,134,134,0,0,1,250,384Z"/><path class="cls-2" d="M499.73,250c0-1.18.15-2.33.18-3.51A248.89,248.89,0,0,0,442,89.92a249.88,249.88,0,0,0,0,320.16,248.89,248.89,0,0,0,57.91-156.57C499.88,252.33,499.73,251.18,499.73,250Z"/><path class="cls-3" d="M58,89.92A248.89,248.89,0,0,0,.09,246.49c0,1.18.18,2.33.18,3.51s-.15,2.33-.18,3.51A248.89,248.89,0,0,0,58,410.08,249,249,0,0,0,116,250,249,249,0,0,0,58,89.92Z"/><path class="cls-4" d="M410.08,58A248.89,248.89,0,0,0,253.51.09c-1.18,0-2.33.18-3.51.18s-2.33-.15-3.51-.18A248.89,248.89,0,0,0,89.92,58,249,249,0,0,0,250,116,249,249,0,0,0,410.08,58Z"/><path class="cls-5" d="M90.21,442.25a249.94,249.94,0,0,0,319.58,0,249.91,249.91,0,0,0-319.58,0Z"/><circle class="cls-6" cx="250" cy="250" r="62.49"/></g></g></svg>