<svg fill="none" height="25" viewBox="0 0 26 25" width="26" xmlns="http://www.w3.org/2000/svg"><g clip-path="url(#clip0_7155_23826)"><path clip-rule="evenodd" d="M10.791 0.70385L1.5407 7.29793C0.234162 8.23444 -0.314581 9.90221 0.181901 11.416L3.70954 22.0897C4.20602 23.6035 5.65628 24.6427 7.27638 24.6427H18.6955C20.3286 24.6427 21.7658 23.6164 22.2623 22.0897L25.7899 11.416C26.2864 9.90221 25.7377 8.23444 24.4312 7.29793L15.207 0.70385C13.8874 -0.232664 12.1105 -0.232664 10.791 0.70385Z" fill="#FF1229" fill-rule="evenodd"></path><path d="M13.9402 18.2039L12.0849 18.1782C11.8628 18.1782 11.6799 18.345 11.6799 18.5631V19.4739C11.6668 20.1924 12.2417 20.7825 12.9734 20.7953C13.705 20.7953 14.306 20.2309 14.3191 19.5124V18.6016C14.3191 18.3835 14.1493 18.2039 13.9402 18.2039Z" fill="white"></path><path d="M12.7513 5.86268C10.1643 5.99097 8.04776 8.05643 7.89097 10.5837C7.79951 12.1104 8.40052 13.5087 9.43268 14.4837H9.44575L9.79851 14.8045L11.288 16.0745C11.4447 16.2156 11.6538 16.2926 11.8628 16.2926H14.1493C14.3583 16.2926 14.5674 16.2156 14.7241 16.0745L16.2658 14.7531L16.5141 14.5479C17.5071 13.6242 18.1342 12.3285 18.1342 10.8788C18.1342 8.01794 15.691 5.72156 12.7513 5.84985V5.86268ZM12.9995 8.5311C14.3191 8.5311 15.3905 9.58308 15.3905 10.8788C15.3905 12.1745 14.3191 13.2265 12.9995 13.2265C11.6799 13.2265 10.6086 12.1745 10.6086 10.8788C10.6086 9.58308 11.6799 8.5311 12.9995 8.5311Z" fill="white"></path></g><defs><clipPath id="clip0_7155_23826"><rect fill="white" height="24.6316" width="26"></rect></clipPath></defs></svg>