<svg width="718" height="718" viewBox="0 0 718 718" fill="none" xmlns="http://www.w3.org/2000/svg">
<path d="M359 718C557.27 718 718 557.27 718 359C718 160.73 557.27 0 359 0C160.73 0 0 160.73 0 359C0 557.27 160.73 718 359 718Z" fill="#FFC800"/>
<path d="M359 692.357C543.108 692.357 692.357 543.108 692.357 359C692.357 174.892 543.108 25.6428 359 25.6428C174.892 25.6428 25.6431 174.892 25.6431 359C25.6431 543.108 174.892 692.357 359 692.357Z" fill="black"/>
<path d="M518.599 180.885H465.39L477.186 217.273L481.16 229.53L470.724 237.094L380.974 302.227L460.313 359.975L554.525 291.637L518.599 180.885Z" fill="#FFC800"/>
<path d="M243.453 236.889L233.042 229.196L237.042 216.938L248.838 180.705H195.808L159.754 291.354L253.864 359.846L333.357 302.201L243.453 236.889Z" fill="#E1AA00"/>
<path d="M347.998 239.427L267.48 180.833L253.89 222.555L347.998 291.046V239.453V239.427Z" fill="#E1AA00"/>
<path d="M446.748 180.91L366.127 239.402V290.995L460.288 222.682L446.748 180.91Z" fill="#FFC800"/>
<path d="M264.274 374.308L254.017 381.719L253.812 382.308L347.921 450.801V313.535L264.274 374.308Z" fill="#E1AA00"/>
<path d="M460.059 381.719L449.802 374.257L366.206 313.432V450.647L460.238 382.411L460.059 381.719Z" fill="#FFC800"/>
<path d="M347.973 472.7L337.562 465.007L271.378 416.85L253.89 470.546L347.998 539.039V472.571L347.973 472.7Z" fill="#E1AA00"/>
<path d="M442.851 417.005L376.487 465.137L366.231 472.649V539.117L460.391 470.829L442.851 417.005Z" fill="#FFC800"/>
</svg>
