<svg width="122" height="122" viewBox="0 0 122 122" fill="none" xmlns="http://www.w3.org/2000/svg"><script xmlns="" type="text/javascript"/>
<g id="Layer_1" clip-path="url(#clip0_2191_11438)">
<path id="Vector" d="M60.7575 121.515C94.313 121.515 121.515 94.313 121.515 60.7575C121.515 27.2021 94.313 0 60.7575 0C27.2021 0 0 27.2021 0 60.7575C0 94.313 27.2021 121.515 60.7575 121.515Z" fill="url(#paint0_linear_2191_11438)"/>
<path id="Vector_2" fill-rule="evenodd" clip-rule="evenodd" d="M54.3426 18.6643C58.8424 16.7656 63.1524 17.0884 66.1713 17.9428C67.8991 18.4364 69.3611 19.044 71.6015 20.9047C73.842 22.7654 75.0191 25.4805 74.1837 25.3096L73.9749 25.2717C72.7787 25.0438 71.7344 24.816 70.1965 24.6831C68.5637 24.5312 66.3042 24.721 65.4688 24.816C61.5196 25.2337 58.9374 26.8476 56.9438 28.1007C53.5262 30.2462 50.0896 33.7018 47.4124 37.4042C45.115 40.5939 42.6278 44.9609 40.6721 50.2582C39.6469 53.0492 38.9064 56.22 38.9064 58.4225C38.9064 59.5807 39.0013 61.3464 39.8557 63.0932C41.4506 60.0364 44.1467 54.891 46.1593 51.3974C49.444 45.7204 53.9629 38.4484 59.5639 34.9359C65.6967 31.0816 73.4432 31.0436 80.3734 35.0308C84.5125 37.4232 86.5441 39.7965 90.3224 44.771C92.5819 47.7519 94.1388 50.7139 95.6577 53.5809C95.9615 54.1695 96.2843 54.758 96.5881 55.3276C97.2336 56.5238 98.5817 59.4668 100.025 64.5172C101.468 69.5677 101.695 75.2257 101.316 78.2257C100.708 83.0673 98.2779 86.6368 96.0375 88.8202C94.7464 90.0734 93.4932 91.0417 90.7591 92.048C88.025 93.0543 85.1011 92.7125 85.6517 92.086L85.8036 91.9151C86.601 91.0037 87.3036 90.1873 88.2149 88.9342C89.1643 87.5861 90.1136 85.5355 90.4554 84.7761C92.0692 81.1496 91.9553 78.0927 91.8794 75.7384C91.7275 71.6942 90.4554 66.9855 88.5947 62.8464C86.9808 59.2579 84.4555 54.9289 80.8291 50.581C78.9304 48.3026 76.5381 46.0811 74.6394 44.9799C73.6711 44.4293 72.1901 43.6508 70.3484 43.4799C72.2091 46.3849 75.3419 51.3404 77.3545 54.853C80.6392 60.53 84.6644 68.0867 84.9112 74.6941C85.196 81.947 81.3417 88.6684 74.4305 92.6746C70.2914 95.0669 67.2156 95.6365 61.0069 96.4149C57.3045 96.8706 53.9439 96.7567 50.7161 96.6238C50.0516 96.6048 49.387 96.5668 48.7225 96.5478C47.3555 96.5099 44.1467 96.2061 39.0393 94.934C33.9318 93.6619 28.9194 91.0227 26.508 89.2C22.6158 86.257 20.7361 82.3648 19.9766 79.3269C19.5399 77.5801 19.3311 76.0042 19.8247 73.1372C20.3184 70.2702 22.0841 67.8969 22.3499 68.6943C22.3689 68.7703 22.4069 68.8272 22.4259 68.9032C22.8246 70.0424 23.1664 71.0676 23.8119 72.4727C24.4954 73.9726 25.7865 75.8143 26.2992 76.4979C28.6346 79.7066 31.3307 81.1306 33.4192 82.2318C36.9887 84.1115 41.7164 85.3647 46.2353 85.8393C50.1465 86.2381 55.178 86.2001 60.7411 85.2507C63.6651 84.7381 66.7789 83.7888 68.6966 82.6875C69.7218 82.0989 71.2598 81.1116 72.342 79.4218C68.9434 79.5737 62.8866 79.8205 58.7285 79.8205C52.1781 79.8205 43.6151 79.5357 37.7672 76.4409C31.3497 73.0613 27.4384 66.3589 27.4384 58.3655C27.4384 53.5809 28.4637 50.6379 30.913 44.8849C32.3749 41.4483 34.1597 38.6003 35.8685 35.8662C36.2292 35.2966 36.571 34.746 36.9318 34.1764C37.6532 33.0182 39.5139 30.3791 43.1594 26.6007C46.8049 22.8224 51.6085 19.8035 54.3995 18.6263L54.3426 18.6643ZM72.0382 68.5994C71.6965 67.8209 71.2788 67.0045 70.8041 66.1501C66.57 58.5554 62.8297 52.1759 60.874 48.8911C60.3044 49.6316 59.7538 50.486 59.1842 51.4354C54.8362 58.7263 51.2477 65.0109 49.3301 68.4095C50.2035 68.5044 51.1528 68.5614 52.1591 68.5804C60.8171 68.7133 68.1839 68.6563 72.0192 68.6184L72.0382 68.5994Z" fill="white"/>
</g>
<defs>
<linearGradient id="paint0_linear_2191_11438" x1="21.8347" y1="-1.63286" x2="88.0415" y2="104.484" gradientUnits="userSpaceOnUse">
<stop stop-color="#A79DFF"/>
<stop offset="1" stop-color="#6B70ED"/>
</linearGradient>
<clipPath id="clip0_2191_11438">
<rect width="121.515" height="121.515" fill="white"/>
</clipPath>
</defs>
</svg>