<?xml version="1.0" encoding="UTF-8"?>
<svg id="Layer_1" xmlns="http://www.w3.org/2000/svg" xmlns:xlink="http://www.w3.org/1999/xlink" version="1.1" viewBox="0 0 595.3 595.3">
  <!-- Generator: Adobe Illustrator 29.1.0, SVG Export Plug-In . SVG Version: 2.1.0 Build 142)  -->
  <defs>
    <style>
      .st0 {
        fill: url(#linear-gradient);
      }

      .st1 {
        fill: #fff;
      }
    </style>
    <linearGradient id="linear-gradient" x1="9.3" y1="297.6" x2="585.9" y2="297.6" gradientUnits="userSpaceOnUse">
      <stop offset="0" stop-color="#77c79a"/>
      <stop offset="1" stop-color="#05a5b0"/>
    </linearGradient>
  </defs>
  <circle class="st0" cx="297.6" cy="297.6" r="288.3"/>
  <path class="st1" d="M389.6,349.1c-.2-7.1-1.6-14-4.3-20.5-2.6-6.6-6.4-12.9-11.2-18.6-1.3-1.5-2.4-2.9-3.8-4,16.7-8.3,27.5-22.1,32.2-41.5,2.5-10.1,2.9-19.9,1.2-29.1-1.7-9.2-5.5-17.7-11.3-25.4-5.5-7.3-13.2-14-22.4-19.3-3.9-2.4-8.2-4.6-12.9-6.3-.2,0-.3-.1-.5-.2l8.8-35.6-27.7-6.8-8.5,34.4-25.6-6.3,8.5-34.4-27.4-6.7-8.5,34.4-50.9-12.5-8.3,33.8,20.8,5.1c4.5,1.1,7.3,5.8,6.2,10.3l-39.2,159.3c-1.1,4.5-5.8,7.3-10.3,6.2l-20.8-5.1-8.3,33.8,29,7.1,21.8,5.4-8.6,34.9,27.4,6.7,8.6-34.9,25.8,6.4-8.6,34.9,27.4,6.7,8.8-35.6c.2,0,.4,0,.5,0,21.2,3.2,39.3,1.2,53.7-5.7,18.3-9.1,30.6-25.8,36.7-50.3,1-6.5,1.6-13.4,1.4-20.6ZM318.6,220h0l5.1,1.2c8.5,2.1,15.6,4.4,20.6,7,.5.1,1,.5,1.5.7h0c0,0,.2,0,.3,0,3.7,2,6.8,4.5,8.8,6.7,1.9,2.5,3,5,3.4,7.9.5,3.5,0,7.7-1,11.9-2.4,9.6-6.3,15.4-12,17.9-2.2.9-5.5,1.8-10.6,1.6-5.1-.1-11.4-.6-20.2-2.7l-33.8-8.3,12.4-50.3,25.6,6.3ZM308.3,381.1c-4.7-.3-10.2-1.1-16.3-2.6l-11.5-2.8-25.8-6.4,14.9-60.5,25.8,6.4,8,2c7.5,1.8,13.7,3.9,19.1,6.1h0l3.8,1.8c5.3,2.7,9.3,5.7,11.7,8.8,2.3,3.1,3.8,6.3,4,10,.6,4.4,0,9.3-1.4,14.9-2.3,11.6-9,23.8-32.3,22.3Z"/>
  <metadata>
    <sfw xmlns="http://ns.adobe.com/SaveForWeb/1.0/">
      <slices/>
      <sliceSourceBounds x="-5216.88" y="836.52" width="2428.81" height="589.36" bottomLeftOrigin="true"/>
    </sfw>
  </metadata>
</svg>