<?xml version="1.0" encoding="UTF-8"?>
<svg id="Layer_1" xmlns="http://www.w3.org/2000/svg" xmlns:xlink="http://www.w3.org/1999/xlink" version="1.1" viewBox="0 0 595.3 595.3">
  <!-- Generator: Adobe Illustrator 29.1.0, SVG Export Plug-In . SVG Version: 2.1.0 Build 142)  -->
  <defs>
    <style>
      .st0 {
        fill: url(#linear-gradient);
      }

      .st1 {
        fill: #fff;
      }
    </style>
    <linearGradient id="linear-gradient" x1="9.3" y1="298.3" x2="585.9" y2="298.3" gradientTransform="translate(0 595.9) scale(1 -1)" gradientUnits="userSpaceOnUse">
      <stop offset="0" stop-color="#77c79a"/>
      <stop offset="1" stop-color="#05a5b0"/>
    </linearGradient>
  </defs>
  <circle class="st0" cx="297.6" cy="297.6" r="288.3"/>
  <path class="st1" d="M355.2,397.5v6.7c0,.9-.2,1.8-.2,2.7v.5c0,.8-.2,1.6-.3,2.3v.7c-.1.8-.2,1.7-.4,2.5v.6c-.2.7-.4,1.4-.5,2.1v.6c-.3.8-.5,1.6-.7,2.3,0,.2-.2.4-.2.6-.2.6-.4,1.3-.5,1.9v.4c-.4.7-.6,1.4-.8,2.1l-.2.6c-.2.6-.4,1.3-.7,1.9v.3c-.4.7-.6,1.3-.9,2.1l-.2.4h-2.1c-3.8,0-7.6-.7-11.1-2.2-1.4-.7-2.8-1.5-3.9-2.6-2.2-2-3.7-4.6-4.3-7.5-.2-.8-.3-1.5-.3-2.3v-3c.3-2.3.9-4.5,1.8-6.6.5-1.2,1.1-2.4,1.7-3.5l18.3-31.6.3.9c.4,1.3.8,2.5,1.2,3.7l.2.7c.3,1.1.6,2.1.9,3.2,0,.3.2.5.2.8.3,1.1.6,2.3.8,3.4,0,.3.2.5.2.8.2,1,.4,2,.6,3v.6c.3,1.1.4,2.2.6,3.3.1.3.1.5.1.8.1,1,.2,1.9.3,2.9v.4c0,1,.2,2.1.2,3.1v.8-.4ZM359.1,220c-.1,1.4-.4,2.7-.6,4.1-.5,2.7-1.3,5.4-2.2,7.9-.5,1.3-1,2.6-1.6,3.8-.2.4-.4.8-.6,1.2l-11.9,20.4c-1.5-1.2-3-2.4-4.5-3.6-43.6-33.6-13.8-81.8-13.8-81.8-49.1,11.2-63.7,67.7-38.2,109.6,11.2,15.4,15.1,34.8,10.6,53.2-.6,2.5-1.6,4.9-2.9,7.1h0l-.9,1.6c-1.3,2.2-2.9,4.3-4.8,6.1-6.9,6.5-16.5,9.7-26.1,8.5-34.3-2.4-29.4-55-29.4-55,0,0-32.8,55.5-10.6,101.3,3.4,7.2,7.8,13.9,13.1,19.9-.8.4-1.6.7-2.4,1l-.9.3-1.7.6-.9.3c-.8.2-1.5.4-2.3.6h-.3c-.9.2-1.7.4-2.6.5h-.8c0,.1-2,.4-2,.4h-.8c-.9.2-1.8.4-2.7.4h-83c-1.5,0-3-.3-4.4-.6-2.5-.5-4.9-1.5-7-2.9-.5-.3-.9-.7-1.4-1.1-.4-.3-.7-.6-1-1-.6-.7-1.2-1.4-1.7-2.2-.2-.4-.5-.9-.6-1.2s-.3-.7-.4-1c-.3-.7-.5-1.4-.6-2.1-.2-.8-.2-1.5-.3-2.3v-1.2c0-.8,0-1.7.2-2.5.6-3.4,1.8-6.6,3.6-9.6L281.3,118.1c.5-1,1.1-1.8,1.7-2.7,1.1-1.6,2.3-3,3.7-4.3,1.2-1.1,2.6-2.1,4-2.9,2-1,4.2-1.6,6.4-1.6s4.4.6,6.4,1.6c.7.4,1.4.8,2.1,1.3,1.4,1,2.7,2.2,3.9,3.6,1.3,1.6,2.5,3.2,3.5,5l12.2,22.1,28.9,50.8c.2.4.4.8.6,1.2.6,1.4,1.2,2.9,1.7,4.3.5,1.5,1,3,1.3,4.5.3,1,.5,2,.7,3,.3,1.3.5,2.7.6,4.1.2,2,.3,3.9.3,5.9s-.1,3.9-.3,5.9h0ZM478,416.4c-.1.7-.3,1.4-.6,2.1-.3.7-.6,1.3-.9,2-.7,1.3-1.7,2.4-2.8,3.4-.9.8-1.8,1.4-2.9,2l-1.1.6c-3.5,1.5-7.4,2.3-11.2,2.2h-89l.5-.4,1.9-1.7,1.2-1.1,1.9-1.7,1.2-1.1c.7-.6,1.3-1.3,2-2l1-1c.7-.9,1.6-1.8,2.5-2.7l.5-.5c1-1.1,1.9-2.3,2.8-3.4l.7-1c.6-.8,1.3-1.7,1.9-2.5.3-.4.6-.9,1-1.3.5-.8,1.1-1.5,1.6-2.3.3-.5.6-1,1-1.5.5-.8,1.1-1.7,1.4-2.3s.6-1.2.9-1.7c.4-.8.9-1.6,1.3-2.4.3-.6.6-1.1.9-1.7.4-.9.8-1.7,1.2-2.6.2-.6.5-1.1.7-1.7.4-1,.7-2,1.1-2.9.2-.5.4-1,.5-1.5.5-1.5,1-3,1.4-4.6,5.8-26.3.7-53.9-14.4-76.2l1.5-2.6c1.5-2.6,3.3-4.9,5.5-7,1.4-1.3,3-2.4,4.7-3.2,1-.5,2.1-.8,3.2-1.1,1.1-.2,2.2-.3,3.3-.2.7,0,1.4.1,2.2.3,1.7.4,3.4,1.1,4.9,2,.4.2.8.5,1.2.8.7.5,1.3,1,1.9,1.6,1.3,1.3,2.5,2.6,3.6,4.1.6.8,1.2,1.6,1.7,2.6l55.1,96.7c.9,1.5,1.6,3.1,2.3,4.7.2.5.4,1,.5,1.5.3,1,.5,1.9.7,2.9.1,1,.2,2,.2,3s0,2.3-.3,3.4h-.4Z"/>
  <metadata>
    <sfw xmlns="http://ns.adobe.com/SaveForWeb/1.0/">
      <slices/>
      <sliceSourceBounds x="9.3" y="9.4" width="576.6" height="576.6" bottomLeftOrigin="true"/>
    </sfw>
  </metadata>
</svg>