<?xml version="1.0" encoding="UTF-8"?><svg xmlns="http://www.w3.org/2000/svg" xmlns:xlink="http://www.w3.org/1999/xlink" viewBox="0 0 226.28 215.16"><defs><style>.h{fill:url(#f);}.i{fill:url(#g);}.j{fill:url(#d);}.k{fill:url(#e);}</style><linearGradient id="d" x1="113.14" y1="-27.69" x2="113.14" y2="156.47" gradientTransform="matrix(1, 0, 0, 1, 0, 0)" gradientUnits="userSpaceOnUse"><stop offset="0" stop-color="#ff6746"/><stop offset="1" stop-color="#ff0546"/></linearGradient><linearGradient id="e" x1="113.14" y1="56.18" x2="113.14" y2="142.46" xlink:href="#d"/><linearGradient id="f" x1="113.14" y1="85.1" x2="113.14" y2="160.8" xlink:href="#d"/><linearGradient id="g" x1="113.14" y1="107.76" x2="113.14" y2="240.03" xlink:href="#d"/></defs><g id="a"/><g id="b"><g id="c"><g><path class="j" d="M87.16,15.57c11.11-20.76,40.86-20.76,51.97,0l83.48,156.02c14.69,27.46-17.7,55.97-43.07,37.91l-49.3-35.09c-10.23-7.28-23.95-7.28-34.18,0l-49.3,35.09c-25.37,18.06-57.76-10.45-43.07-37.91L87.16,15.57Z"/><path class="k" d="M222.6,171.59L157.66,50.2c-.36,.33-.71,.66-1.06,1l-5.28,5.17c-23.34,22.89-60.97,22.02-83.23-1.92l-1.11-1.19L3.68,171.59c-4.58,8.56-4.58,17.22-1.65,24.54h63.52l30.51-21.72c10.23-7.28,23.95-7.28,34.18,0l30.51,21.72h63.52c2.93-7.32,2.93-15.98-1.65-24.54Z"/><path class="h" d="M46.75,209.5l49.3-35.09c10.23-7.28,23.95-7.28,34.18,0l49.3,35.09c25.37,18.06,57.76-10.45,43.07-37.91l-51.44-96.14c-5.28,2.64-10.21,6.11-14.57,10.38l-5.28,5.17c-23.34,22.89-60.97,22.02-83.23-1.92l-1.63-1.75c-3.69-3.97-7.88-7.28-12.39-9.93L3.68,171.59c-14.69,27.46,17.7,55.97,43.07,37.91Z"/><path class="i" d="M46.75,209.5l49.3-35.09c10.23-7.28,23.95-7.28,34.18,0l49.3,35.09c25.37,18.06,57.76-10.45,43.07-37.91l-35.7-66.72c-11.21,1.98-21.83,7.27-30.31,15.59l-5.28,5.17c-23.34,22.89-60.97,22.02-83.23-1.92l-1.63-1.75c-7.6-8.17-17.29-13.6-27.66-16.02L3.68,171.59c-14.69,27.46,17.7,55.97,43.07,37.91Z"/></g></g></g></svg>