<svg version="1.1" id="Layer_1" xmlns="http://www.w3.org/2000/svg" x="0" y="0" width="306" height="306" style="enable-background:new 0 0 306 306" xml:space="preserve"><style>.st0{fill:#129487}.st2{fill:#e4e4e4}</style><g id="XMLID_29_"><path id="XMLID_16_" class="st0" d="M306 153c0 84.5-68.5 153-153 153S0 237.5 0 153 68.5 0 153 0s153 68.5 153 153"/><path id="XMLID_15_" style="fill:#fff" d="M223.1 165.4v-12.9H236V76.2h-12.9V63.4H70v63.4h12.9v26.7H70v76.3h12.9v12.8H236v-63.4h-25.7v-13.8z"/><path id="XMLID_14_" class="st2" d="M197.9 75.8v64.3h12.9V75.8z"/><path id="XMLID_13_" class="st2" d="M185.1 140.1h12.8V153h-12.8z"/><path id="XMLID_12_" class="st2" d="M159.4 153v12.9H185.1V153h-12.8z"/><path id="XMLID_11_" class="st2" d="M146.6 165.9h12.8v12.9h-12.8z"/><path id="XMLID_10_" class="st2" d="M197.9 191.6v12.9H82.4v12.9h128.4v-38.7h-12.9z"/><path id="XMLID_9_" class="st0" d="M210.8 88.6v51.5h12.8V88.6z"/><path id="XMLID_8_" class="st0" d="M197.9 140.1h12.8V153h-12.8z"/><path id="XMLID_7_" class="st0" d="M185.1 153h12.8v12.9h-12.8z"/><path id="XMLID_6_" class="st0" d="M159.4 165.9h12.8v12.9h-12.8z"/><path id="XMLID_5_" class="st0" d="M120.9 127.3h38.5v-12.9H95.3v12.9h12.8z"/><path id="XMLID_4_" class="st0" d="M210.8 204.5v12.9H95.2v12.8h128.4v-38.6h-12.8z"/><path id="XMLID_3_" d="M223.6 75.8V62.9H69.6v64.4h12.8V153h12.9v-12.9h25.6v-12.8H95.3v-12.9H82.4V75.8h128.4v12.8h12.8v51.5h-12.8V153h-12.9v12.9h-25.6v12.8h38.5v-12.8h12.8V153h12.8V75.8z"/><path id="XMLID_2_" d="M223.6 191.6v38.6H95.3v-12.8H82.4V153H69.6v77.2h12.8v12.9H236.4v-64.4h-25.6v12.9z"/></g></svg>