<svg width="2021" height="1893" viewBox="0 0 2021 1893" fill="none" xmlns="http://www.w3.org/2000/svg">
<g clip-path="url(#clip0_977_950)">
<path d="M1836.8 0.45324L1564.28 0.237305L1624.69 192.332L1645.06 257.144L1591.61 297.097L1131.72 641.199L1538.09 946.21L2020.64 585.212L1836.8 0.45324Z" fill="#1A1A1A"/>
<path d="M427.639 296.401L374.271 256.315L394.721 191.611L455.132 0.215114L183.597 0L-1 584.544L480.955 946.295L887.866 641.823L427.639 296.401Z" fill="#1A1A1A"/>
<path d="M963.145 309.766L550.783 0.370117L481.19 220.714L963.145 582.466L963.406 582.251V309.713L963.145 309.766Z" fill="#1A1A1A"/>
<path d="M1468.91 0.683594L1056 309.595V582.133L1538.24 221.35L1468.91 0.683594Z" fill="#1A1A1A"/>
<path d="M534.376 1022.12L482.208 1061.21L481.19 1064.39L963.145 1426.14L963.406 1425.92V701.129L534.376 1022.12Z" fill="#1A1A1A"/>
<path d="M1537.07 1061.44L1484.64 1022.06L1056.55 700.74L1056 701.144V1425.94L1538.24 1065.16L1537.07 1061.44Z" fill="#1A1A1A"/>
<path d="M963.067 1541.98L909.699 1501.92L570.763 1247.57L481.19 1531.25L963.145 1893L963.406 1892.79V1541.71L963.067 1541.98Z" fill="#1A1A1A"/>
<path d="M1448.93 1247.75L1109.11 1502L1056 1541.73V1892.8L1538.24 1532.02L1448.93 1247.75Z" fill="#1A1A1A"/>
</g>
<defs>
<clipPath id="clip0_977_950">
<rect width="2021" height="1893" fill="white"/>
</clipPath>
</defs>
</svg>
