<?xml version="1.0" encoding="utf-8"?>
<!-- Generator: Adobe Illustrator 19.0.0, SVG Export Plug-In . SVG Version: 6.00 Build 0)  -->
<svg version="1.1" id="Layer_1" xmlns="http://www.w3.org/2000/svg" xmlns:xlink="http://www.w3.org/1999/xlink" x="0px" y="0px"
	 width="348.2px" height="88.4px" viewBox="0 0 348.2 88.4" style="enable-background:new 0 0 348.2 88.4;" xml:space="preserve">
<style type="text/css">
	.st0{fill:#FF6600;}
</style>
<polyline id="XMLID_12_" points="223.5,67 170,67 189.9,21.4 209.7,21.4 194.8,55.1 228.7,55.1 "/>
<polygon id="XMLID_11_" points="227.3,67 236.9,44.6 225.1,21.4 247.3,21.4 252.5,31.5 267.1,21.4 289.3,21.4 256.7,44.6 247.2,67 
	"/>
<path id="XMLID_8_" d="M183.2,29.8c-0.3-1.5-0.9-2.8-1.6-4.1c-0.8-1.3-1.8-2.5-3.2-3.4c-1.4-0.9-3.1-0.9-5.1-0.9l-49-0.1L105.8,67
	h19.8l7.2-17h29.1c2.4,0,4.8-0.4,7.4-1.2c2.6-0.8,4.9-1.9,7-3.4c2.1-1.5,3.9-3.2,5.3-5.2s2.1-4.2,2.1-6.6
	C183.6,32.6,183.5,31.3,183.2,29.8 M159.7,39.2h-16.8l-8.9,7.6l6.7-16.3h19.9l3.9,4.5L159.7,39.2z"/>
<path id="XMLID_5_" d="M347.7,29.6c-0.3-1.5-0.9-2.8-1.6-4.1c-0.8-1.3-1.8-2.4-3.2-3.2c-1.4-0.9-3.1-0.8-5.1-0.8l-48.6-0.1L270.3,67
	h19.8l7.2-17.3l24,17.3h21.4l-21.6-17.3h5.2c2.4,0,4.8-0.4,7.4-1.2c2.6-0.8,4.9-1.9,7-3.4c2.1-1.5,3.9-3.2,5.3-5.2
	c1.4-2,2.1-4.2,2.1-6.6C348.2,32.3,348,31,347.7,29.6 M324.2,38.9h-16.8l-8.9,7.6l6.7-16.3h19.9l3.9,4.5L324.2,38.9z"/>
<path id="XMLID_2_" class="st0" d="M45.6,0C21,0,1,19.8,1,44.2c0,24.4,20,44.2,44.6,44.2c24.6,0,44.6-19.8,44.6-44.2
	C90.2,19.8,70.2,0,45.6,0 M67,48.8H32.6L14.4,64.3l13.7-33.4H69L77,40L67,48.8z"/>
</svg>
