<?xml version="1.0" encoding="utf-8"?>
<!-- Generator: Adobe Illustrator 19.0.0, SVG Export Plug-In . SVG Version: 6.00 Build 0)  -->
<svg version="1.1" id="Layer_1" xmlns="http://www.w3.org/2000/svg" xmlns:xlink="http://www.w3.org/1999/xlink" x="0px" y="0px"
	 width="238.4px" height="60.7px" viewBox="0 0 238.4 60.7" style="enable-background:new 0 0 238.4 60.7;" xml:space="preserve">
<style type="text/css">
	.st0{fill:#FFFFFF;}
	.st1{fill:#FF6600;}
</style>
<polyline id="XMLID_36_" class="st0" points="152.8,46 116,46 129.7,14.7 143.3,14.7 133.1,37.8 156.4,37.8 "/>
<polygon id="XMLID_35_" class="st0" points="155.4,46 162,30.6 153.9,14.7 169.1,14.7 172.7,21.6 182.7,14.7 197.9,14.7 175.6,30.6 
	169.1,46 "/>
<path id="XMLID_32_" class="st0" d="M125.1,20.5c-0.2-1-0.6-1.9-1.1-2.8c-0.5-0.9-1.3-1.7-2.2-2.3c-0.9-0.6-2.1-0.6-3.5-0.6
	l-33.7-0.1L71.9,46h13.6l5-11.7h20c1.6,0,3.3-0.3,5.1-0.8c1.8-0.5,3.4-1.3,4.8-2.3c1.5-1,2.7-2.2,3.6-3.5c0.9-1.4,1.4-2.9,1.4-4.5
	C125.4,22.4,125.3,21.5,125.1,20.5 M109,26.9H97.5l-6.1,5.2l4.6-11.2h13.7l2.7,3.1L109,26.9z"/>
<path id="XMLID_29_" class="st0" d="M238.1,20.3c-0.2-1-0.6-1.9-1.1-2.8c-0.5-0.9-1.3-1.6-2.2-2.2c-0.9-0.6-2.1-0.5-3.5-0.5
	l-33.4-0.1L185,46h13.6l5-11.8L220,46h14.7l-14.8-11.8h3.6c1.6,0,3.3-0.3,5.1-0.8c1.8-0.5,3.4-1.3,4.8-2.3c1.5-1,2.7-2.2,3.6-3.5
	c0.9-1.4,1.4-2.9,1.4-4.5C238.4,22.2,238.3,21.3,238.1,20.3 M222,26.7h-11.5l-6.1,5.2l4.6-11.2h13.7l2.7,3.1L222,26.7z"/>
<path id="XMLID_26_" class="st1" d="M30.6,0C13.7,0,0,13.6,0,30.3s13.7,30.3,30.6,30.3c16.9,0,30.6-13.6,30.6-30.3S47.5,0,30.6,0
	 M45.3,33.5H21.7L9.2,44.1l9.4-23h28l5.5,6.3L45.3,33.5z"/>
</svg>
